<svg width="600" height="600" viewBox="0 0 600 600" xmlns="http://www.w3.org/2000/svg" fill="none">
  <defs>
    <radialGradient id="g" cx="0" cy="0" r="1" gradientUnits="userSpaceOnUse" gradientTransform="translate(120 120) rotate(45) scale(420)">
      <stop stop-color="#1dc3ff" stop-opacity="0.55" />
      <stop offset="1" stop-color="#021f35" stop-opacity="0" />
    </radialGradient>
    <linearGradient id="line" x1="0" y1="0" x2="1" y2="1">
      <stop stop-color="#6ee0ff" stop-opacity="0.32" />
      <stop offset="1" stop-color="#6ee0ff" stop-opacity="0" />
    </linearGradient>
  </defs>
  <rect width="600" height="600" fill="url(#g)" />
  <g stroke="url(#line)" stroke-width="1.6">
    <path d="M40 80C150 40 260 60 360 140C460 220 540 230 620 170" />
    <path d="M-40 200C80 140 210 150 320 230C430 310 540 320 640 260" />
    <path d="M-20 360C120 300 240 330 360 420C480 510 600 500 700 440" />
  </g>
  <g fill="#6ee0ff" fill-opacity="0.35">
    <circle cx="510" cy="90" r="22" />
    <circle cx="70" cy="490" r="16" />
    <circle cx="420" cy="480" r="10" />
  </g>
</svg>
