<svg width="520" height="340" viewBox="0 0 520 340" xmlns="http://www.w3.org/2000/svg" fill="none">
  <rect width="520" height="340" rx="28" fill="#e9f6fc" />
  <path d="M80 228h320c22 0 40-18 40-40v-40c0-44-36-80-80-80H160c-35 0-64 29-64 64v96Z" fill="#0c9cd8" fill-opacity="0.85" />
  <path d="M144 120h142c32 0 58 26 58 58v20H144c-22 0-40-18-40-40 0-21 17-38 38-38Z" fill="#072f44" fill-opacity="0.35" />
  <rect x="180" y="140" width="80" height="52" rx="12" fill="#fff" fill-opacity="0.85" />
  <rect x="276" y="140" width="68" height="52" rx="12" fill="#fff" fill-opacity="0.65" />
  <circle cx="168" cy="240" r="34" fill="#072f44" />
  <circle cx="168" cy="240" r="18" fill="#fff" fill-opacity="0.92" />
  <circle cx="352" cy="240" r="34" fill="#072f44" />
  <circle cx="352" cy="240" r="18" fill="#fff" fill-opacity="0.92" />
  <path d="M110 120h26c6 0 12-5 12-12s-5-12-12-12h-18c-9 0-16 7-16 16 0 5 4 8 8 8Z" fill="#fff" fill-opacity="0.8" />
  <path d="M420 198h26" stroke="#fff" stroke-width="8" stroke-linecap="round" />
  <path d="M60 256h52" stroke="#0c9cd8" stroke-width="10" stroke-linecap="round" stroke-opacity="0.5" />
  <path d="M410 80c0 22 18 40 40 40s40-18 40-40-18-40-40-40-40 18-40 40Z" fill="#fff" fill-opacity="0.8" />
  <path d="M438 80c0 12 10 22 22 22s22-10 22-22-10-22-22-22-22 10-22 22Z" fill="#0c9cd8" fill-opacity="0.7" />
</svg>
